# xmcd CD database file
#
# Track frame offsets:
#	150
#	18294
#	32451
#	55686
#	67295
#	81695
#	104644
#	112409
#	131586
#	163387
#	183741
#	201793
#	207188
#	229408
#	243358
#
# Disc length: 3285 seconds
#
# Revision: 0
# Processed by: cddbd v1.5.2PL0 Copyright (c) Steve Scherf et al.
# Submitted via: CDex 1.51
#
DISCID=e80cd30f
DTITLE=Blues Devine - That's What It Takes
DYEAR=2006
DGENRE=Blues
TTITLE0=Home To New Orleans
TTITLE1=That's What It Takes
TTITLE2=Ride On Me (Pony Blues)
TTITLE3=Delta One
TTITLE4=Other Men's Crimes
TTITLE5=Raining Again
TTITLE6=Hellbound On My Trail
TTITLE7=You Can't Fight Yourself And Win
TTITLE8=The Red Road And The White Wolf Blues
TTITLE9=Steady Rollin' Man
TTITLE10=The End Of My Lies
TTITLE11=Austin Shuffle
TTITLE12=Angel Child
TTITLE13=Should I Pass Over
TTITLE14=Home To New Orleans rerise
EXTD=YEAR: 2006
EXTT0=
EXTT1=
EXTT2=
EXTT3=
EXTT4=
EXTT5=
EXTT6=
EXTT7=
EXTT8=
EXTT9=
EXTT10=
EXTT11=
EXTT12=
EXTT13=
EXTT14=
PLAYORDER=
